# xmcd
#
# Track frame offsets: 
#        150
#        17530
#        32461
#        55776
#        89979
#        114727
#        149198
#        181952
#        205866
#        218487
#        246834
#
# Disc length: 3663 seconds
#
# Revision: 0
# Processed by: cddbd v1.5.1PL0 Copyright (c) Steve Scherf et al.
# Submitted via: ExactAudioCopy v0.95a5
#
DISCID=9e0e4d0b
DTITLE=Hot Tuna - 1983-08-17 Chestnut Cabaret Philadelphia, PA
DYEAR=1983
DGENRE=Blues
TTITLE0=I Know You Rider
TTITLE1=Keep Your Lamps Trimmed And Burning
TTITLE2=Hesitation Blues
TTITLE3=Killing Time In The Crystal City
TTITLE4=Walkin' Blues
TTITLE5=I See The Light
TTITLE6=Ice Age
TTITLE7=Third Week In The Chelsea
TTITLE8=Trouble In Mind
TTITLE9=Death Don't Have No Mercy
TTITLE10=Radical Sleep
EXTD=
EXTT0=
EXTT1=
EXTT2=
EXTT3=
EXTT4=
EXTT5=
EXTT6=
EXTT7=
EXTT8=
EXTT9=
EXTT10=
PLAYORDER=
